<?xml version="1.0" encoding="UTF-8" standalone="no"?>
<svg
   xmlns:dc="http://purl.org/dc/elements/1.1/"
   xmlns:cc="http://creativecommons.org/ns#"
   xmlns:rdf="http://www.w3.org/1999/02/22-rdf-syntax-ns#"
   xmlns:svg="http://www.w3.org/2000/svg"
   xmlns="http://www.w3.org/2000/svg"
   xmlns:sodipodi="http://sodipodi.sourceforge.net/DTD/sodipodi-0.dtd"
   xmlns:inkscape="http://www.inkscape.org/namespaces/inkscape"
   version="1.1"
   id="Layer_1"
   x="0px"
   y="0px"
   viewBox="0 0 508 508"
   style="enable-background:new 0 0 508 508;"
   xml:space="preserve"
   sodipodi:docname="flask.svg"
   inkscape:version="1.0.1 (3bc2e813f5, 2020-09-07)"><metadata
   id="metadata158"><rdf:RDF><cc:Work
       rdf:about=""><dc:format>image/svg+xml</dc:format><dc:type
         rdf:resource="http://purl.org/dc/dcmitype/StillImage" /></cc:Work></rdf:RDF></metadata><defs
   id="defs156" /><sodipodi:namedview
   pagecolor="#ffffff"
   bordercolor="#666666"
   borderopacity="1"
   objecttolerance="10"
   gridtolerance="10"
   guidetolerance="10"
   inkscape:pageopacity="0"
   inkscape:pageshadow="2"
   inkscape:window-width="1920"
   inkscape:window-height="1060"
   id="namedview154"
   showgrid="false"
   inkscape:zoom="1.6988189"
   inkscape:cx="254"
   inkscape:cy="253.41136"
   inkscape:window-x="0"
   inkscape:window-y="20"
   inkscape:window-maximized="0"
   inkscape:current-layer="Layer_1" />

<path
   style="fill:#E6E9EE;"
   d="M364.8,196.4l-18-3.6c-0.8-6.8-2.4-12.8-4.8-19.2l13.6-12c1.2-0.8,1.2-2.8,0.8-4l-8-14  c-0.8-1.2-2.4-2-3.6-1.6l-17.2,6c-4-5.2-8.8-9.6-14-14l6-17.2c0.4-1.6,0-2.8-1.6-3.6l-14-8c-1.2-0.8-2.8-0.4-4,0.8l-12,13.6  c-6-2.4-12.4-4-19.2-5.2l-3.6-18c-0.4-1.2-1.6-2.4-3.2-2.4h-16c-1.6,0-2.8,1.2-3.2,2.4l-3.6,18c-6.4,1.2-12.8,2.8-19.2,5.2L208,106  c-0.8-1.2-2.8-1.2-4-0.8l-14,8c-1.2,0.8-2,2.4-1.6,3.6l6,17.2c-5.2,4-9.6,8.8-14,14l-17.2-6c-1.6-0.4-2.8,0-3.6,1.6l-8,14  c-0.8,1.2-0.4,2.8,0.8,4l13.6,12c-2.4,6-4,12.4-5.2,19.2l-18,3.6c-1.6,0.4-2.4,1.6-2.4,3.2v16c0,1.6,1.2,2.8,2.4,3.2l18,3.6  c1.2,6.4,2.8,12.8,5.2,19.2l-13.6,12c-1.2,0.8-1.2,2.8-0.8,4l8,14c0.8,1.2,2.4,2,3.6,1.6l17.2-6c4,5.2,8.8,9.6,14,14l-5.6,16.8  c-0.4,1.6,0,2.8,1.6,3.6l14,8c1.2,0.8,2.8,0.4,4-0.8l12-13.6c6,2.4,12.4,4,19.2,5.2l3.6,18c0.4,1.6,1.6,2.4,3.2,2.4h16  c1.6,0,2.8-1.2,3.2-2.4l3.6-18c6.4-1.2,12.8-2.8,19.2-5.2l12,13.6c0.8,1.2,2.8,1.2,4,0.8l14-8c1.2-0.8,2-2.4,1.6-3.6l-6-17.2  c5.2-4,9.6-8.8,14-14l17.2,6c1.6,0.4,2.8,0,3.6-1.6l8-14c0.8-1.2,0.4-2.8-0.8-4l-13.6-12c2.4-6,4-12.4,5.2-19.2l18-3.6  c1.6-0.4,2.4-1.6,2.4-3.2v-16C367.6,198,366.4,196.8,364.8,196.4z M254,278c-38.8,0-70.4-31.6-70.4-70.4s31.6-70.4,70.4-70.4  s70.4,31.6,70.4,70.4S292.8,278,254,278z"
   id="path105" />
<path
   style="fill:#FFFFFF;"
   d="M349.6,383.6l-62.8-90v-96.8h-65.6v96.4l-62.8,90.4c-8.8,12.8,0.4,30.4,16,30.4H334  C349.6,414,358.8,396.4,349.6,383.6z"
   id="path107" />
<g
   id="g113">
	<path
   style="fill:#84DBFF;"
   d="M283.2,310.4h-58.4l-56,80.4c-2,3.2-1.2,6-0.4,6.8c0.4,1.2,2.4,3.6,6,3.6H334c3.6,0,5.6-2.4,6-3.6   s1.6-4-0.4-6.8L283.2,310.4z"
   id="path109" />
	<path
   style="fill:#84DBFF;"
   d="M289.6,196.8h-70.8c-5.2,0-9.6-4.4-9.6-9.6l0,0c0-5.2,4.4-9.6,9.6-9.6h70.8c5.2,0,9.6,4.4,9.6,9.6   l0,0C299.2,192.4,294.8,196.8,289.6,196.8z"
   id="path111" />
</g>
<g
   id="g121">
	<circle
   style="fill:#FFFFFF;"
   cx="238.8"
   cy="346"
   r="15.2"
   id="circle115" />
	<circle
   style="fill:#FFFFFF;"
   cx="263.6"
   cy="371.2"
   r="9.6"
   id="circle117" />
	<circle
   style="fill:#FFFFFF;"
   cx="268"
   cy="347.6"
   r="7.2"
   id="circle119" />
</g>
<g
   id="g123">
</g>
<g
   id="g125">
</g>
<g
   id="g127">
</g>
<g
   id="g129">
</g>
<g
   id="g131">
</g>
<g
   id="g133">
</g>
<g
   id="g135">
</g>
<g
   id="g137">
</g>
<g
   id="g139">
</g>
<g
   id="g141">
</g>
<g
   id="g143">
</g>
<g
   id="g145">
</g>
<g
   id="g147">
</g>
<g
   id="g149">
</g>
<g
   id="g151">
</g>
</svg>
